<svg xmlns="http://www.w3.org/2000/svg" width="860" height="172" viewBox="0 0 860 172" role="img" aria-label="Fluidity">
  
  <style>
    .bg   { fill: #ffffff; }
    .glow { stop-opacity: 0.10; }
    .fade { stop-opacity: 0.15; }
    .edge { stroke: #d8dee4; }
    .t    { fill: #1f2328; font-weight: 640; }
    .m    { fill: #59636e; }
    .pill { fill: #f1f3f5; stroke: #d8dee4; }
    .pt   { fill: #59636e; font-weight: 600; }
    text  { font-family: -apple-system,BlinkMacSystemFont,'Segoe UI',Roboto,Helvetica,Arial,sans-serif; }
    @media (prefers-color-scheme: dark) {
      .bg   { fill: #0d1117; }
      .glow { stop-opacity: 0.30; }
      .fade { stop-opacity: 0.26; }
      .edge { stroke: #30363d; }
      .t    { fill: #e6edf3; }
      .m    { fill: #8b949e; }
      .pill { fill: #161b22; stroke: #30363d; }
      .pt   { fill: #8b949e; }
    }
  </style>
  <defs>
    <radialGradient id="glow" cx="0" cy="0" r="292" gradientUnits="userSpaceOnUse">
      <stop class="glow" offset="0" stop-color="#4cc9f0"/>
      <stop offset="1" stop-color="#4cc9f0" stop-opacity="0"/>
    </radialGradient>
    <linearGradient id="fade" x1="0" y1="0" x2="0" y2="1">
      <stop class="fade" offset="0" stop-color="#4cc9f0"/>
      <stop offset="1" stop-color="#4cc9f0" stop-opacity="0"/>
    </linearGradient>
    <linearGradient id="hfade" x1="0" y1="0" x2="1" y2="0">
      <stop offset="0.30" stop-color="#fff" stop-opacity="0"/>
      <stop offset="0.62" stop-color="#fff" stop-opacity="1"/>
    </linearGradient>
    <mask id="edgefade"><rect width="860" height="172" fill="url(#hfade)"/></mask>
  </defs>
  <clipPath id="clip"><rect x="0" y="0" width="860" height="172" rx="14"/></clipPath>
  <rect class="bg edge" x="0.5" y="0.5" width="859" height="171" rx="14"/>
  <rect x="0" y="0" width="860" height="172" rx="14" fill="url(#glow)"/>
  <g clip-path="url(#clip)" mask="url(#edgefade)">
    <path d="M361.0,94.0Q361.0,94.0 377.6,107.0Q394.3,120.0 410.9,128.8Q427.5,137.6 444.2,147.8Q460.8,157.9 477.4,157.5Q494.1,157.0 510.7,153.5Q527.3,150.0 544.0,157.0Q560.6,164.1 577.2,138.9Q593.9,113.8 610.5,117.4Q627.1,120.9 643.8,117.4Q660.4,113.8 677.0,122.6Q693.7,131.5 710.3,128.4Q726.9,125.3 743.6,120.0Q760.2,114.7 776.8,128.4Q793.5,142.0 810.1,145.1Q826.7,148.2 843.4,155.5L860.0,162.7L860,172L361,172Z" fill="url(#fade)"/>
    <path d="M361.0,94.0Q361.0,94.0 377.6,107.0Q394.3,120.0 410.9,128.8Q427.5,137.6 444.2,147.8Q460.8,157.9 477.4,157.5Q494.1,157.0 510.7,153.5Q527.3,150.0 544.0,157.0Q560.6,164.1 577.2,138.9Q593.9,113.8 610.5,117.4Q627.1,120.9 643.8,117.4Q660.4,113.8 677.0,122.6Q693.7,131.5 710.3,128.4Q726.9,125.3 743.6,120.0Q760.2,114.7 776.8,128.4Q793.5,142.0 810.1,145.1Q826.7,148.2 843.4,155.5L860.0,162.7" fill="none" stroke="#4cc9f0" stroke-width="1.6" stroke-opacity="0.85" stroke-linecap="round"/>
  </g>
  <text class="t" x="28" y="52.599999999999994" font-size="30">Fluidity</text>
  <text class="m" x="28" y="81.1" font-size="15">WebGL fluid effects for React text &amp; images</text>
  <circle cx="33" cy="142" r="5" fill="#3178c6"/>
  <text class="m" x="45" y="146" font-size="12.5">TypeScript</text>
  <rect class="pill" x="126.5" y="133" width="58.88" height="19" rx="9.5" stroke-width="1"/>
  <text class="pt" x="136.5" y="146" font-size="12">141/wk</text>
</svg>
